<svg xmlns="http://www.w3.org/2000/svg" viewBox="0 0 39.91 39.91"><title>資產 8</title><g id="圖層_2" data-name="圖層 2"><g id="Layer_1" data-name="Layer 1"><path d="M39.91,20A20,20,0,0,1,0,20L20,0A20,20,0,0,1,39.91,20Z" fill="#d80027"/><path d="M20,20V0A20,20,0,0,0,0,20Z" fill="#0052b4"/><polygon points="17.35 11.68 14.92 12.82 16.21 15.19 13.57 14.68 13.23 17.35 11.39 15.39 9.54 17.35 9.21 14.68 6.56 15.19 7.86 12.82 5.42 11.68 7.86 10.53 6.56 8.17 9.21 8.68 9.54 6 11.39 7.97 13.23 6 13.57 8.68 16.21 8.17 14.92 10.53 17.35 11.68" fill="#f0f0f0"/><circle cx="11.39" cy="11.68" r="3.71" fill="#0052b4"/><path d="M11.39,13.66a2,2,0,1,1,2-2A2,2,0,0,1,11.39,13.66Z" fill="#f0f0f0"/></g></g></svg>