<?xml version="1.0" encoding="utf-8"?>
<!-- Generator: Adobe Illustrator 22.0.1, SVG Export Plug-In . SVG Version: 6.00 Build 0)  -->
<svg version="1.1" xmlns="http://www.w3.org/2000/svg" xmlns:xlink="http://www.w3.org/1999/xlink" x="0px" y="0px"
	 viewBox="0 0 40 39.9" style="enable-background:new 0 0 40 39.9;" xml:space="preserve">
<style type="text/css">
	.st0{fill:#D80027;}
	.st1{fill:#0052B4;}
	.st2{fill:#F0F0F0;}
</style>
<g id="Layer_1">
	<g>
		<g>
			<path class="st0" d="M84.6,20c0,11-8.9,20-20,20s-20-8.9-20-20c6.9-6.9,12.7-12.7,20-20C75.6,0,84.6,8.9,84.6,20z"/>
			<path class="st1" d="M64.6,20c0-11,0-12.3,0-20c-11,0-20,8.9-20,20H64.6z"/>
		</g>
		<polygon class="st2" points="62,11.7 59.6,12.8 60.9,15.2 58.2,14.7 57.9,17.4 56.1,15.4 54.2,17.4 53.9,14.7 51.2,15.2 
			52.5,12.8 50.1,11.7 52.5,10.5 51.2,8.2 53.9,8.7 54.2,6 56.1,8 57.9,6 58.2,8.7 60.9,8.2 59.6,10.5 		"/>
		<circle class="st1" cx="56.1" cy="11.7" r="3.7"/>
		<path class="st2" d="M56.1,13.7c-1.1,0-2-0.9-2-2s0.9-2,2-2c1.1,0,2,0.9,2,2C58,12.8,57.1,13.7,56.1,13.7z"/>
	</g>
</g>
<g id="圖層_2">
	<g>
		<circle class="st2" cx="20" cy="20" r="20"/>
		<g>
			<path class="st0" d="M19.1,20H40c0-1.8-0.2-3.6-0.7-5.2H19.1V20z"/>
			<path class="st0" d="M19.1,9.5h17.9c-1.2-2-2.8-3.8-4.6-5.2H19.1V9.5z"/>
			<path class="st0" d="M20,40c4.7,0,9-1.6,12.4-4.3H7.6C11,38.3,15.3,40,20,40z"/>
			<path class="st0" d="M2.9,30.4h34.1c1-1.6,1.7-3.4,2.2-5.2H0.7C1.2,27,2,28.8,2.9,30.4z"/>
		</g>
		<path class="st1" d="M9.3,3.1h1.8L9.4,4.3l0.6,2L8.3,5.1L6.6,6.3l0.6-1.7C5.7,5.8,4.4,7.3,3.3,8.9h0.6L2.8,9.7
			c-0.2,0.3-0.3,0.6-0.5,0.9l0.5,1.6l-1-0.7c-0.2,0.5-0.5,1-0.7,1.6l0.6,1.7h2.1L2.2,16l0.6,2l-1.7-1.2l-1,0.7C0.1,18.3,0,19.1,0,20
			h20c0-11,0-12.3,0-20C16,0,12.4,1.1,9.3,3.1z M10,18l-1.7-1.2L6.6,18l0.6-2l-1.7-1.2h2.1l0.6-2l0.6,2h2.1L9.4,16L10,18z M9.4,10.1
			l0.6,2l-1.7-1.2l-1.7,1.2l0.6-2L5.6,8.9h2.1l0.6-2l0.6,2h2.1L9.4,10.1z M17.2,18l-1.7-1.2L13.8,18l0.6-2l-1.7-1.2h2.1l0.6-2l0.6,2
			h2.1L16.6,16L17.2,18z M16.6,10.1l0.6,2l-1.7-1.2l-1.7,1.2l0.6-2l-1.7-1.2h2.1l0.6-2l0.6,2h2.1L16.6,10.1z M16.6,4.3l0.6,2
			l-1.7-1.2l-1.7,1.2l0.6-2l-1.7-1.2h2.1l0.6-2l0.6,2h2.1L16.6,4.3z"/>
	</g>
</g>
</svg>
